<svg width="25" height="21" viewBox="0 0 25 21" fill="none" xmlns="http://www.w3.org/2000/svg">
<path d="M2.89775 20.0778C2.24084 20.0778 1.67848 19.8439 1.21068 19.3761C0.742873 18.9083 0.508972 18.3459 0.508972 17.689V3.35637C0.508972 2.69945 0.742873 2.1371 1.21068 1.66929C1.67848 1.20149 2.24084 0.96759 2.89775 0.96759H22.008C22.6649 0.96759 23.2272 1.20149 23.695 1.66929C24.1628 2.1371 24.3967 2.69945 24.3967 3.35637V17.689C24.3967 18.3459 24.1628 18.9083 23.695 19.3761C23.2272 19.8439 22.6649 20.0778 22.008 20.0778H2.89775ZM12.4529 11.7171L2.89775 5.74514V17.689H22.008V5.74514L12.4529 11.7171ZM12.4529 9.32831L22.008 3.35637H2.89775L12.4529 9.32831ZM2.89775 5.74514V3.35637V17.689V5.74514Z" fill="white"/>
</svg>
